<?xml version="1.0" encoding="UTF-8"?>
<!-- Created with Inkscape (http://www.inkscape.org/) -->
<svg width="523.3" height="296.96" version="1.1" viewBox="0 0 523.3 296.96" xmlns="http://www.w3.org/2000/svg" xmlns:cc="http://creativecommons.org/ns#" xmlns:dc="http://purl.org/dc/elements/1.1/" xmlns:rdf="http://www.w3.org/1999/02/22-rdf-syntax-ns#">
 <metadata>
  <rdf:RDF>
   <cc:Work rdf:about="">
    <dc:format>image/svg+xml</dc:format>
    <dc:type rdf:resource="http://purl.org/dc/dcmitype/StillImage"/>
    <dc:title/>
   </cc:Work>
  </rdf:RDF>
 </metadata>
 <path d="m0.60699 295.38c-0.33384-0.86998-0.60699-1.7756-0.60699-2.0124s2.5875-2.0742 5.75-4.083c25.646-16.29 48.054-38.295 60.591-59.5 11.243-19.017 19.659-45.539 19.659-61.954v-4.869h-37v-96h38.071l1.9802-4.6195c1.0891-2.5407 2.4765-6.5907 3.0832-9 0.61136-2.4279 1.6964-4.3805 2.4343-4.3805 3.2236 0 37.056 3.097 38.181 3.495 2.3729 0.83942 1.3335 4.2277-1.6798 5.4759-1.8846 0.78062-3.4504 2.5185-4.389 4.8713l-1.4591 3.6577 85.697 0.52118 0.29027 8.1318 0.29027 8.1318 4.1758 1.2302c5.8286 1.7171 10.77 4.973 12.152 8.0075 2.6266 5.7647 0.43684 12.478-4.0702 12.478-0.95192 0-3.2441-3.0937-5.742-7.75-7.4126-13.817-7.0161-15.373-7.0161 27.536v38.214h-61.962l-0.49624 2.25c-3.6676 16.629-3.5662 37.774 0.20788 43.36 1.5369 2.2748 7.3998 4.431 14.959 5.5015 10.113 1.4321 30.649 0.35474 33.905-1.7787 3.6298-2.3784 7.1876-10.927 8.8334-21.224 0.82549-5.165 1.6828-9.5727 1.905-9.795 0.2223-0.22229 0.92426 3.3286 1.5599 7.8909 1.8332 13.157 1.9734 13.525 6.7783 17.754 4.2842 3.7711 4.5013 4.209 3.8515 7.7686-0.37874 2.0748-2.2619 7.0645-4.1848 11.088-2.8232 5.9079-4.3679 7.8688-8.0252 10.188-6.9168 4.3865-12.003 4.9958-41.7 4.9958-29.793 0-34.728-0.6857-40.621-5.6438-6.4008-5.3859-6.462-5.7381-7.0115-40.356l-0.5-31.5-22-0.50517 9.6376 8.5052-3.5018 3.3813c-3.9898 3.8524-3.8541 3.5394-10.163 23.452-11.504 36.311-30.639 61.805-62.285 82.983-7.0404 4.7115-26.976 15.684-28.495 15.684-0.26317 0-0.75164-0.7118-1.0855-1.5818zm123.36-153.88c1.5744-1.8971 2.4813-12.049 1.6009-17.92-1.1543-7.6971-0.89074-7.6173-25.141-7.6173-26.945 0-25.763-0.68443-25.267 14.626 0.2568 7.9278 0.70046 10.678 1.8385 11.396 0.825 0.52069 11.457 0.9536 23.628 0.96202 18.211 0.0126 22.342-0.24356 23.341-1.4473zm65.159-0.18989c0.96025-1.1562 1.3724-4.636 1.3724-11.586 0-14.261 0.92673-13.761-25.5-13.761-26.428 0-25.5-0.50059-25.5 13.758 0 6.9505 0.41225 10.431 1.3724 11.588 1.2031 1.4496 4.1808 1.6537 24.128 1.6537 19.94 0 22.925-0.20445 24.128-1.6525zm-65-32.003c1.8736-2.2598 1.935-21.682 0.0744-23.545-1.8931-1.8956-42.681-2.3772-46.202-0.54562-2.4024 1.2498-2.5111 1.7234-2.7849 12.129-0.18749 7.1262 0.11078 11.305 0.87245 12.223 0.92779 1.1179 5.6706 1.3945 23.912 1.3945 19.957 0 22.924-0.20358 24.128-1.6554zm64.431 0.23671c1.6985-1.2414 1.9411-2.6741 1.9411-11.462 0-14.41 1.4803-13.619-25.5-13.619-26.981 0-25.5-0.79092-25.5 13.616 0 8.7892 0.24266 10.222 1.9411 11.464 2.8319 2.0707 44.285 2.0713 47.118 7.1e-4zm267.93 130.17c-0.74675-2.0633-7.3622-33.206-7.1078-33.46 0.12947-0.12947 2.0101 0.27844 4.1792 0.90646 2.1691 0.62802 8.073 1.1783 13.12 1.2229 10.208 0.0901 13.087-1.1621 16.647-7.2413 5.3229-9.0891 7.6276-37.359 7.6576-93.928l0.0192-36.25h-46.593l-3.2298 21.75c-1.7764 11.962-3.218 23.152-3.2035 24.866 0.0206 2.4314 1.5788 4.8476 7.0939 11 16.437 18.336 23.175 34.213 18.422 43.404-1.7923 3.466-4.3003 4.98-8.2496 4.98-4.1083 0-6.1883-2.7756-12.285-16.393-5.0968-11.384-9.0207-17.607-11.102-17.607-0.53301 0-2.9049 4.1625-5.2708 9.25-15.279 32.854-34.694 53.775-63.098 67.991-19.79 9.9053-30.762 11.875-15.893 2.8534 31.739-19.258 55.361-48.021 66.549-81.032 1.5728-4.6407 2.8596-10.31 2.8596-12.598 0-3.7647-0.54661-4.6794-5.75-9.6215-7.8325-7.4393-18.746-15.985-30.993-24.269-5.6315-3.8091-10.035-7.1298-9.7853-7.3795 1.0495-1.0495 18.646 5.3879 33.756 12.349 8.9375 4.1175 16.794 7.2777 17.459 7.0226 0.66473-0.25508 1.7067-2.3135 2.3154-4.5743 1.1245-4.1761 3.998-25.526 3.998-29.704v-2.288h-60v-29h155.3l-0.62259 45.75c-0.82688 60.762-3.3034 99.164-7.7094 119.55-4.272 19.762-14.034 29.725-31.976 32.636-9.3238 1.5127-25.937 1.399-26.509-0.18132zm-302.94-33c-0.74653-1.7875-1.6584-4.8562-2.0264-6.8194l-0.66907-3.5694 5.8678 0.42444c4.267 0.30865 6.19 0.0362 7.0488-0.99852 1.5839-1.9085 6.2354-21.327 6.237-26.037 2e-3 -4.5709 0.64054-4.6287 8.7513-0.79167 6.8944 3.2616 7.7788 5.1658 3.2674 7.0345-2.0694 0.85716-4.672 3.9128-8.5 9.9796-3.0346 4.8093-5.5174 9.483-5.5174 10.386 0 1.364 1.17 1.6417 6.9182 1.6417 3.805 0 7.63-0.27314 8.5-0.60699 1.9733-0.75722 2.0274-4.3908 0.13282-8.9251-1.9181-4.5906-0.24714-4.643 5.6098-0.17571 8.0816 6.164 10.901 13.32 7.2824 18.485-2.5818 3.686-8.4433 2.3982-8.4433-1.855 0-3.6806-2.1757-3.8765-14.527-1.3079-6.7563 1.405-13.153 3.3384-14.682 4.4376-3.5347 2.5411-3.6575 2.5106-5.2498-1.3022zm70.542-6.6678c-1.2318-1.2318-2.1483-4.0039-2.5623-7.75-0.35449-3.2077-0.87962-7.0805-1.1669-8.6062-0.7135-3.7886-5.0234-8.6754-9.3063-10.552l-3.5467-1.5541 4.1635-0.6157c9.289-1.3737 11.211-5.8676 24.303-56.831 6.3814-24.841 8.9171-33.107 9.0034-29.35 0.0167 0.72804-2.6456 16.028-5.9164 34-10.638 58.451-10.607 58.161-7.1246 66.995 2.6465 6.7143 2.671 11.582 0.0714 14.181-2.5207 2.5207-5.4489 2.5511-7.9178 0.0822zm72.918-11.189c-2.475-2.134-6.4125-4.8948-8.75-6.1351s-4.25-2.5171-4.25-2.8373 1.9377-1.9738 4.306-3.6745c5.4193-3.8918 15.401-13.559 19.154-18.55l2.8598-3.8037-1.6011-8.6963c-0.88059-4.7829-1.892-10.609-2.2476-12.946-0.35557-2.3375-1.1433-4.25-1.7504-4.25-2.0715 0-14.684 8.0638-15.762 10.077-0.59091 1.1041-0.93585 3.6334-0.76654 5.6207 0.27444 3.2212 0.74178 3.7625 4.3078 4.9896 5.0765 1.7468 7.75 4.4073 7.75 7.7123 0 3.0857-2.0044 5.8025-3.9788 5.3932-0.77703-0.16109-2.3974-2.7679-3.6008-5.7929-1.6281-4.0926-2.6976-5.5-4.1792-5.5-1.3902 0-2.8792 1.66-4.9335 5.5-2.9606 5.534-12.47 16-14.538 16-0.61106 0 0.47916-2.0826 2.4227-4.628 4.7809-6.2613 8.149-13.665 9.4646-20.806 1.2924-7.0147 1.365-22.209 0.1365-28.566-0.47832-2.475-0.71405-4.6572-0.52384-4.8493 0.56078-0.56637 7.8923 0.86767 9.4927 1.8568 1.1717 0.72413 1.2184 1.162 0.22954 2.1509-1.404 1.404-1.7654 15.842-0.39663 15.842 1.5363 0 3.9731-3.4316 5.866-8.2607l1.866-4.7606 8.3121 6.1128-0.41583-3.2957c-0.22871-1.8126-0.6715-5.7707-0.98397-8.7957l-0.56813-5.5-33.921 0.59119-0.0136 11.704c-8e-3 6.4374-0.285 12.717-0.61664 13.954-0.33163 1.2375-0.16885 2.25 0.36175 2.25 1.0652 0 4.2244-8.9911 4.3446-12.365 0.16344-4.587 2.7731 4.9651 2.8478 10.424 0.0919 6.7125-1.5226 9.4422-5.172 8.7445-2.428-0.46413-2.5951-0.21409-3.2244 4.8227-1.793 14.35-10.106 42.374-12.57 42.374-0.49357 0-3.4984-1.3089-6.6773-2.9087-3.179-1.5998-7.5165-3.6223-9.639-4.4946-2.3966-0.98487-3.6448-2.0616-3.2935-2.8413 10.417-23.126 12.608-37.343 12.637-82.005l0.0158-24.75h55.245l-0.48336-8.75c-0.26584-4.8125-0.84569-9.607-1.2886-10.654-0.74169-1.7542-0.46891-1.8506 3.4589-1.2225 2.3452 0.37502 5.8475 1.3434 7.7828 2.1521 3.4528 1.4427 3.4884 1.5164 1.9022 3.9374-1.0376 1.5836-1.6165 4.6285-1.6165 8.5023v6.0352h10.567c10.498 0 10.563-0.0148 9.8733-2.25-1.2097-3.9216-3.3791-7.6102-6.7004-11.393l-3.2223-3.67 3.991 0.74047c7.7729 1.4421 15.491 8.2426 15.491 13.649 0 2.7438 0.24555 2.9233 4 2.9233h4v21h-28l0.0876 10.75c0.0482 5.9125 0.40993 13 0.80388 15.75l0.71627 5 2.0772-6.5c1.1425-3.575 2.6523-9.0875 3.3552-12.25 0.70292-3.1625 1.5612-5.75 1.9072-5.75 0.34605 0 5.0849 1.4938 10.531 3.3196 9.812 3.2896 12.607 5.3224 8.7159 6.3399-1.5266 0.3992-2.6662 2.6311-4.6896 9.1839-3.4954 11.32-10.789 28.637-14.578 34.612l-3.0075 4.7423 3.0511 4.651c4.0954 6.2429 6.1916 8.6317 8.7989 10.027 1.8276 0.97811 2.5171 0.83835 4.2086-0.85318 1.1126-1.1126 2.0229-2.4729 2.0229-3.0229s0.3375-0.99953 0.75-0.99896c0.80111 1e-3 4.288 13.305 4.2642 16.27-0.0198 2.4734-3.9434 4.0862-7.0592 2.9016-4.1567-1.5804-12.49-8.7266-17.099-14.663l-4.356-5.6106-2.4925 3.3001c-3.5059 4.6418-15.017 16.652-18.007 18.788-2.4787 1.7705-2.5383 1.7527-7-2.0943zm-7-87.896 3.5-4.0333 4.5 3.9752c2.475 2.1864 4.8375 3.9944 5.25 4.0178 0.89524 0.0509 0.96665-4.547 0.11971-7.7074-0.59419-2.2172-0.84151-2.25-16.986-2.25h-16.383v10l16.5 0.031 3.5-4.0333zm88.147 67.252-3.0533-4.6938 4.8906-1.8243c14.311-5.3384 17.414-24.82 4.9775-31.251-1.5741-0.81401-3.7844-1.48-4.9117-1.48-1.7104 0-2.0497 0.63565-2.0497 3.84 0 9.6598-6.4113 27.133-12.085 32.936-4.1497 4.2445-7.6883 4.2395-12.537-0.0175-5.1213-4.4965-7.3339-9.8543-7.3339-17.759 0-11.061 5.8055-20.173 16.456-25.827 4.3371-2.3025 6.1932-2.6556 14-2.6636 8.1374-8e-3 9.5197 0.27831 14.423 2.9908 6.6612 3.6851 10.61 8.9341 12.092 16.073 2.6993 13.003-5.334 27.533-18.165 32.856l-3.6501 1.5143-3.0533-4.6938zm-15.181-9.2155c7.6122-7.6122 14.302-28.843 9.6508-30.628-3.7719-1.4474-14.324 6.14-17.676 12.709-2.3545 4.6152-2.5552 12.796-0.41541 16.934 1.8224 3.5242 5.4746 3.9501 8.4403 0.98436zm-131.57-96.284c-1.4433-2.3375-5.1615-6.8907-8.2626-10.118l-5.6383-5.8683 6.0724 0.50739c10.694 0.89355 17.882 5.9917 17.882 12.683 0 8.0474-5.813 9.6643-10.054 2.7964zm118.55-34.714c-4.1143-8.9261-5.7838-10.523-9.3174-8.9132-2.081 0.94815-3.2035 0.92259-5.3797-0.1225l-2.75-1.3207 4.1848-0.8858c4.1502-0.87849 4.1832-0.9205 4-5.0823-0.17941-4.0748-0.0836-4.2112 3.3039-4.7041 3.8278-0.55689 5.4146-3.5049 2.3184-4.3072-1.4981-0.38824-1.4413-0.48815 0.33213-0.58432 2.8937-0.15692 6.8525 3.1603 6.1028 5.1139-0.45408 1.1833-1.63 1.4243-5.0618 1.0375-3.9022-0.43984-4.5554-0.23579-5.1398 1.6054-0.78451 2.4718 0.17015 4.4679 1.8108 3.7862 6.2066-2.5789 8.8351-3.4474 7.2905-2.4086-1.0221 0.68732-2.9387 2.0731-4.2592 3.0794l-2.4008 1.8298 4.373 5.1702c5.4914 6.4926 6.922 9.2234 6.1334 11.708-1.0457 3.2948-2.195 2.2574-5.541-5.0017zm-163.45 3.769c-2.5968-1.4726-3.4805-2.8428-3.4213-5.305 0.0462-1.9221 0.0813-1.9179 0.89995 0.10805 0.89169 2.2066 5.8084 3.7946 8.5232 2.7529 1.7516-0.67215 4.7474 1.4269 3.9282 2.7524-0.77576 1.2552-7.5433 1.0451-9.93-0.30826zm245.49-1.8185c-0.99812-2.4097-0.99682-4.913 7e-3 -12.494 1.004-7.5856 1.0049-9.7811 4e-3 -10.987-0.82965-0.99963-0.8813-1.5065-0.15354-1.5065 0.60322 0 1.7469 1.2572 2.5415 2.7938 1.2372 2.3925 1.2521 3.717 0.10345 9.2213-1.3039 6.2481-0.92032 10.314 0.60538 6.4185 0.48749-1.2449 0.78225 0.11453 0.82749 3.8164 0.0801 6.5514-1.8106 7.8661-3.9353 2.7365zm10.447 0.57205c-3.0146-2.2386-0.74643-4.9439 4.6604-5.5586l4.3984-0.5 0.2999-5.75c0.16495-3.1625-8e-3 -5.75-0.38398-5.75-0.37613 0-2.3667 0.50419-4.4235 1.1204-2.7078 0.81128-4.2574 0.81967-5.616 0.0304-1.7607-1.0228-1.7389-1.0919 0.35337-1.1204 1.2264-0.0167 4.0721-0.76755 6.3238-1.6685 3.6702-1.4685 4.0264-1.9074 3.441-4.24-0.35917-1.431-1.1799-2.937-1.8238-3.3466-0.73261-0.46602-0.40357-0.75044 0.87928-0.76002 2.5254-0.0189 4.45 1.791 4.45 4.1847 0 1.1333 0.74074 1.8 2 1.8 2.6665 0 2.5382 1.2896-0.25 2.5129-1.9528 0.85675-2.287 1.8457-2.53 7.4871l-0.27999 6.5 3.7125 2c5.2497 2.8281 5.4445 4.5 0.52444 4.5-3.4974 0-3.9252-0.2468-3.4667-2 0.31001-1.1855 0.0307-2-0.68589-2-0.6649 0-2.3531 0.9-3.7515 2-3.0115 2.3688-5.1851 2.5239-7.8317 0.55857zm4.9938-1.5338c3.6481-1.387 3.1738-3.0248-0.87588-3.0248-3.7456 0-5.6365 1.7034-3.4371 3.0965 1.6998 1.0766 1.2739 1.0837 4.313-0.0717zm-210.18-0.55343c6.3724-4.3301 8.4735-10.741 4.743-14.471-3.5372-3.5372-6.6509-2.6234-9.3697 2.75-2.0556 4.0627-2.1996 4.9396-0.99487 6.06 1.7504 1.6279 0.79899 3.3868-1.6162 2.9879-0.99199-0.16382-2.754 0.56105-3.9155 1.6108-1.7589 1.5897-2.529 1.7186-4.6078 0.77144-2.8614-1.3038-3.266-4.2961-0.85169-6.2998 1.4619-1.2133 1.5651-1.1154 0.93104 0.88248-0.5131 1.6166-0.25415 2.4232 0.92298 2.8749 2.8567 1.0962 4.0048-1.2209 2.0689-4.1755-0.95156-1.4523-1.9065-5.1879-2.1221-8.3014l-0.392-5.6609 0.96341 4.4967c0.52988 2.4732 1.4207 4.6491 1.9797 4.8354 0.55895 0.18632 0.79342 0.69934 0.52105 1.14-0.27237 0.44071 0.1468 1.3341 0.9315 1.9854 1.1588 0.96174 1.7339 0.59002 3.0627-1.9796 0.89981-1.74 1.3768-3.4229 1.0601-3.7396-0.31675-0.31676 0.13594-1.3625 1.006-2.3239 1.2903-1.4257 1.3614-2.16 0.38585-3.9828-1.0434-1.9495-0.97925-2.1516 0.50208-1.5832 0.93397 0.3584 1.8863 0.65163 2.1163 0.65163 0.23001 0 0.41821 0.9 0.41821 2 0 1.4771 0.66667 2 2.5497 2 6.064 0 11.532 6.0156 9.963 10.96-0.89452 2.8184-4.265 5.8806-8.3848 7.6179-5.1729 2.1814-5.9944 1.6954-1.8709-1.1067zm153.36-0.55962c-1.4602-1.1486-3.2832-3.3033-4.0511-4.7884-1.3696-2.6486-3.7042-13.301-3.0587-13.957 0.18052-0.18334 1.2657 0.60416 2.4116 1.75 1.4617 1.4617 2.0833 3.3596 2.0833 6.3608 0 8.2689 5.3317 11.507 9.011 5.4725l1.9816-3.25 4e-3 5.25c4e-3 5.1126-0.0712 5.25-2.8614 5.25-1.5758 0-4.0598-0.93973-5.52-2.0883zm-113.94-1.2549c5.9128-2.8504 8.6148-6.2796 8.149-10.342-0.28896-2.5207-0.75392-2.8461-4.4522-3.1162-3.6001-0.26295-4.7297 0.21784-8.8108 3.75-4.6281 4.0056-7.6716 4.8988-10.531 3.0907-1.6863-1.0665-1.5882-1.1746 2.471-2.7253 1.65-0.63031 5.8597-2.3457 9.3548-3.812 6.6261-2.7798 9.4883-2.7614 13.895 0.089 2.4297 1.5715 2.9543 5.2248 1.2166 8.4717-1.3122 2.4519-7.3924 5.576-12.513 6.4295l-3.9535 0.65894zm39.249-2.7338c3.1933-3.1933 3.8802-6.5537 2.0417-9.9888-1.4461-2.7021-5.9648-2.6222-5.9648 0.10558 0 2.3278-3.441 9.4966-5.0295 10.478-1.7467 1.0795-3.9705-1.5627-3.9705-4.7176 0-4.2768 4.8018-8.8006 9.3413-8.8006 4.9192 0 6.5102 0.8122 8.2745 4.2239 1.9477 3.7664 0.57996 7.6386-3.5624 10.086-4.2321 2.4999-4.5844 2.0678-1.1302-1.3864zm-7.4488-4.8734c0.83912-1.6227 1.5257-3.8885 1.5257-5.0352 0-1.7918-0.28811-1.9306-2.0496-0.98795-2.5036 1.3399-4.4281 5.2864-3.6133 7.4097 0.91678 2.3891 2.4505 1.8751 4.1372-1.3866zm-112.44 5.7191c-1.9061-0.51571-5.1686-0.77526-7.25-0.57677-6.2793 0.59883-4.2452-0.88148 2.2156-1.6124 3.9803-0.45032 6-1.1258 6-2.0067 0-2.6798-2.3397-3.4712-6.7678-2.2892-3.6482 0.97377-4.4843 0.89297-5.9526-0.57533-1.611-1.611-1.4432-1.7082 2.9471-1.7082 4.8297 0 6.1625-0.8221 5.2382-3.2309-0.33919-0.88389-1.5551-1.2677-3.2532-1.0269-1.4914 0.21147-3.6116-0.30469-4.7116-1.147-1.9226-1.4722-1.8742-1.5328 1.25-1.5633 1.7875-0.0175 3.2357-0.3693 3.2182-0.7818-0.0619-1.4592-2.7071-4.25-4.0284-4.25-0.96975 0-1.0377-0.30207-0.24598-1.0938 1.7567-1.7567 4.6685-0.60607 5.3117 2.099 0.36227 1.5237 1.3525 2.5507 2.5438 2.6384 3.7621 0.27714 3.9358 0.43116 2.0753 1.8401-1.0825 0.81974-1.6243 2.0746-1.2814 2.9682 0.65235 1.7 3.6568 2.1503 3.6568 0.54805 0-0.55 0.675-1 1.5-1 2.3089 0 1.7763 2.6945-0.65848 3.3312-2.1524 0.56288-2.151 0.57423 0.5 4.0499 4.1294 5.414 3.4712 6.951-2.3072 5.3876zm212.97-4.7587c-1.925-0.41072-2.7676-0.80601-1.8724-0.87841 0.89515-0.0724 2.2305-0.85818 2.9675-1.7462 1.1562-1.3931 0.93301-1.9649-1.6276-4.1696l-2.9675-2.5551 3 0.74374c3.9899 0.98915 7.6539 4.531 7.2916 7.0486-0.33045 2.2965-1.7742 2.6274-6.7916 1.5569zm-56-0.88178c-2.2232-0.67486-2.0209-0.8253 1.8276-1.3588 7.5327-1.0443 10.944-6.5095 5.4224-8.6876-2.4887-0.98177-2.37-1.0287 1.25-0.49384 4.6122 0.68144 6.5 1.9478 6.5 4.3602 0 4.3865-8.8699 8.041-15 6.1801zm1.8125-9.8114c0.72187-0.28887 1.5844-0.25334 1.9167 0.079 0.33229 0.33229-0.25834 0.56864-1.3125 0.52522-1.165-0.048-1.4019-0.28494-0.60417-0.60417zm102.76-5.2402c-1.9096-2.11-1.1929-2.7578 1.3024-1.1771 0.75454 0.47797 1.193 1.4056 0.97443 2.0614-0.25678 0.77034-1.0627 0.45733-2.2769-0.88434zm3.1826-2.0534c-1.7964-2.098-1.2631-2.6332 1.1199-1.1237 0.75454 0.47797 1.201 1.3816 0.99223 2.008-0.22957 0.68869-1.0646 0.33906-2.1121-0.88435z"/>
</svg>
